<svg width="1200" height="630" viewBox="0 0 1200 630" fill="none" xmlns="http://www.w3.org/2000/svg">
  <rect width="1200" height="630" fill="#0B1020"/>
  <rect width="1200" height="630" fill="url(#g)"/>
  <defs>
    <radialGradient id="g" cx="0.75" cy="0.15" r="0.9">
      <stop offset="0" stop-color="#5865F2" stop-opacity="0.35"/>
      <stop offset="1" stop-color="#0B1020" stop-opacity="0"/>
    </radialGradient>
  </defs>
  <g transform="translate(96,150)">
    <rect x="0" y="0" width="72" height="72" rx="18" fill="#5865F2"/>
    <path d="M22 56V16h22c10 0 16 6 16 14 0 7-4 12-10 14l9 12H59l-8-13h-6v13H22zm10-21h10c4 0 7-2 7-6s-3-6-7-6H32v12z" fill="#fff"/>
    <text x="92" y="52" font-family="-apple-system, 'Segoe UI', Roboto, sans-serif" font-size="48" font-weight="800" fill="#fff">RolePilot</text>
  </g>
  <text x="96" y="340" font-family="-apple-system, 'Segoe UI', Roboto, sans-serif" font-size="64" font-weight="800" fill="#fff">Automate Discord Role &amp;</text>
  <text x="96" y="416" font-family="-apple-system, 'Segoe UI', Roboto, sans-serif" font-size="64" font-weight="800" fill="#fff">Membership Management</text>
  <text x="96" y="486" font-family="-apple-system, 'Segoe UI', Roboto, sans-serif" font-size="30" font-weight="500" fill="#A5B0C8">Slash-command controls · auto expiry &amp; renewals · full audit trail</text>
  <text x="96" y="566" font-family="-apple-system, 'Segoe UI', Roboto, sans-serif" font-size="26" font-weight="600" fill="#5865F2">miaoyf.com</text>
</svg>
